<svg xmlns="http://www.w3.org/2000/svg" width="36.001" height="15.968" viewBox="0 0 36.001 15.968"><defs><style>.a{fill:#eee;}</style></defs><g transform="translate(-57 -614)"><path class="a" d="M-7977.186,703.969l-2.387-.524v-3.777l2.387-.5h1.847v4.8Zm-14.276-1.272c-1.29-.617-5.093-.681-8.35-1.115-5.557-1.41-5.228-5.075-5.162-6.443.726-4.119,4.181-4.936,5.425-5.276s3.124.048,5.667-.8a23.991,23.991,0,0,1,4.932-1.059v4.49a21.392,21.392,0,0,1-4.932-1.059,14.089,14.089,0,0,0-5.667-.3,5.341,5.341,0,0,0-4.266,4.006c.129,2.865,1.133,3.556,2.752,4.587s6.952,1.356,8.9.771a25.376,25.376,0,0,1,3.212-.771v3.685A8.03,8.03,0,0,1-7991.462,702.7Zm16.8.707v-3.685h3.3V703.4Zm-13.338,0v-3.685h4V703.4Zm4.609-.52V700.24h2.158v2.644ZM-7988,692.438V688h19v4.438Z" transform="translate(8062 -74)"/></g></svg>