<svg id="icon-hammerhead" xmlns="http://www.w3.org/2000/svg" width="36.001" height="31" viewBox="0 0 36.001 31">
  <g id="Hammerhead_icon_default" data-name="Hammerhead icon default" transform="translate(1858.001 2473)">
    <g id="Group_453" data-name="Group 453" transform="translate(7.165)">
      <g id="Group_451" data-name="Group 451">
        <g id="Ellipse_50" data-name="Ellipse 50" transform="translate(-1861.165 -2473)" fill="none" stroke="#eee" stroke-width="1">
          <circle cx="6" cy="6" r="6" stroke="none"/>
          <circle cx="6" cy="6" r="5.5" fill="none"/>
        </g>
        <path id="Subtraction_31" data-name="Subtraction 31" d="M11,33H5V14.574a7.522,7.522,0,0,0,6-.438V33Z" transform="translate(-1863 -2475)" fill="#eee"/>
        <path id="Subtraction_71" data-name="Subtraction 71" d="M-3.457,10.925h0A7.772,7.772,0,0,0-6.635,9.014C-7.96,7-6.39,1.869-6.374,1.817L.238,0A5.5,5.5,0,0,0,3,10.256a5.622,5.622,0,0,0,.652-.038l0,.042,0,.021c-1.387.46-6.526.626-7.107.643Zm-.93-8.066c-.316,0-.834,1.462-.839,1.477A11.223,11.223,0,0,0-4.147,9.408c.342.563.642.849.892.849.426,0,.56-.84.562-.849A7.878,7.878,0,0,1-4.147,4.336a2.776,2.776,0,0,0-.16-1.44A.11.11,0,0,0-4.387,2.859Z" transform="translate(-1858 -2471.756)" fill="#eee"/>
        <circle id="Ellipse_314" data-name="Ellipse 314" cx="4" cy="4" r="4" transform="translate(-1859.165 -2471)" fill="#eee"/>
      </g>
    </g>
    <g id="Group_527" data-name="Group 527" transform="translate(-1838.001 -2473)">
      <g id="Group_451-2" data-name="Group 451">
        <g id="Ellipse_50-2" data-name="Ellipse 50" fill="none" stroke="#eee" stroke-width="1">
          <circle cx="6" cy="6" r="6" stroke="none"/>
          <circle cx="6" cy="6" r="5.5" fill="none"/>
        </g>
        <path id="Subtraction_31-2" data-name="Subtraction 31" d="M6,18.865H6a7.523,7.523,0,0,0-6-.438V0H6V18.865Z" transform="translate(8.835 31) rotate(180)" fill="#eee"/>
        <path id="Subtraction_71-2" data-name="Subtraction 71" d="M3.709,0h0A7.772,7.772,0,0,1,.531,1.912c-1.325,2.015.245,7.145.261,7.2L7.4,10.925A5.5,5.5,0,0,1,10.166.669a5.622,5.622,0,0,1,.652.038l0-.042,0-.021C9.435.183,4.3.018,3.715,0Zm-.93,8.066c-.316,0-.834-1.462-.839-1.477A11.223,11.223,0,0,1,3.019,1.517C3.36.954,3.66.669,3.91.669c.426,0,.56.84.562.849A7.878,7.878,0,0,0,3.019,6.589a2.776,2.776,0,0,1-.16,1.44A.11.11,0,0,1,2.778,8.066Z" transform="translate(16.001 12.169) rotate(180)" fill="#eee"/>
        <circle id="Ellipse_314-2" data-name="Ellipse 314" cx="4" cy="4" r="4" transform="translate(2 2)" fill="#eee"/>
      </g>
    </g>
  </g>
</svg>
