<svg xmlns="http://www.w3.org/2000/svg" width="66.001" height="27" viewBox="0 0 66.001 27">
  <g id="icon-controllers" transform="translate(-336.504 -119)">
    <path id="Path_8304" data-name="Path 8304" d="M12.648,2.226c0-.334-.023-.412-.072-.492-.333-.4-.562-.406-2.107-.384V.513a.326.326,0,0,0-.327-.325H9.073a.326.326,0,0,0-.327.325V.682H8.089a2.311,2.311,0,0,0-.851-.6A2.077,2.077,0,0,0,6.413.01c-.235.017-.437.036-.67.072l-.172.03L5.35.154A4.626,4.626,0,0,0,4.1.591a1.407,1.407,0,0,0-.755.729A1.74,1.74,0,0,0,3.26,1.7a1.275,1.275,0,0,0,.1.688l0,.047V2.7a3.8,3.8,0,0,0-.866,1.008C1.487,4.876,1.134,9.067.64,13.515.1,18.377-.875,23.2,1.688,25.4c1.663,1.438,2.663,1.527,4.992,1.592.416.04.138-.131,1.1-.122a6.086,6.086,0,0,1,1.006.072c1.765,0,2.726-.019,3.316-.015a.668.668,0,0,0,.547-.566S12.616,5.875,12.648,2.226ZM7.361,4.486A2.569,2.569,0,1,1,4.779,7.054,2.577,2.577,0,0,1,7.361,4.486ZM10.017,16.4H8.759v1.253a1.09,1.09,0,0,1-2.181,0V16.4H5.32a1.086,1.086,0,1,1,0-2.171H6.578V12.976a1.09,1.09,0,0,1,2.181,0v1.252h1.258a1.086,1.086,0,1,1,0,2.171Z" transform="translate(336.504 119)" fill="#eee"/>
    <path id="Path_8305" data-name="Path 8305" d="M12.012,13.515c-.494-4.448-.846-8.638-1.852-9.806A3.8,3.8,0,0,0,9.295,2.7V2.439l0-.047a1.275,1.275,0,0,0,.1-.688,1.746,1.746,0,0,0-.081-.384A1.407,1.407,0,0,0,8.556.591,4.612,4.612,0,0,0,7.3.154L7.082.112,6.91.082C6.679.046,6.475.027,6.242.01a2.087,2.087,0,0,0-.827.074,2.311,2.311,0,0,0-.851.6H3.906V.513A.326.326,0,0,0,3.579.188H2.51a.326.326,0,0,0-.327.325v.836C.639,1.328.412,1.337.076,1.734.028,1.814,0,1.892,0,2.226c.032,3.65,0,24.137,0,24.137a.667.667,0,0,0,.547.566c.59,0,1.551.015,3.316.015a6.125,6.125,0,0,1,1.006-.072c.965-.009.687.163,1.1.122C8.3,26.929,9.3,26.84,10.964,25.4,13.527,23.2,12.553,18.377,12.012,13.515Zm-6.8-10.17a1.4,1.4,0,1,1-1.409,1.4A1.407,1.407,0,0,1,5.215,3.345ZM6.621,9.639a1.408,1.408,0,1,1-1.407-1.4A1.407,1.407,0,0,1,6.621,9.639ZM1.347,7.193A1.409,1.409,0,1,1,2.756,8.6,1.407,1.407,0,0,1,1.347,7.193Zm3.868,10.66a2.531,2.531,0,1,1,2.542-2.532A2.54,2.54,0,0,1,5.215,17.853ZM7.672,8.6a1.4,1.4,0,1,1,1.407-1.4A1.407,1.407,0,0,1,7.672,8.6Z" transform="translate(389.852 119)" fill="#eee"/>
    <rect id="Rectangle_992" data-name="Rectangle 992" width="11.512" height="17.985" transform="translate(351.155 138.256) rotate(-90)" fill="#eee"/>
    <rect id="Rectangle_993" data-name="Rectangle 993" width="11.512" height="17.658" transform="translate(370.167 138.256) rotate(-90)" fill="#eee"/>
  </g>
</svg>
