<svg id="icon-glasses" xmlns="http://www.w3.org/2000/svg" width="46" height="18" viewBox="0 0 46 18">
  <path id="smart_glasses_default" data-name="smart glasses default" d="M-2684.941-64a8.408,8.408,0,0,1-6.581-2.937,11.283,11.283,0,0,1-2.125-3.687c-.242-.684-.509-1.831-.762-2.947l-.026-.114-.1-.421c-.088-.387-.161-.708-.234-1.018-.234-1-.729-1.521-1.471-1.562h-1.529c-.742.041-1.237.567-1.471,1.562-.079.336-.16.692-.25,1.088l-.08.351-.026.114c-.253,1.116-.521,2.263-.762,2.947a11.283,11.283,0,0,1-2.125,3.687A8.408,8.408,0,0,1-2709.059-64a8.32,8.32,0,0,1-3.954-.955,8.923,8.923,0,0,1-2.612-2.142,11.7,11.7,0,0,1-2.02-3.519l0-.009c-.1-.279-.289-1.111-.431-1.76l-.019-.088-.02-.089c-.006-.03-.012-.059-.019-.088l-.019-.089c-.1-.457-.205-.965-.316-1.51-.106-.527-.54-.871-1.29-1.022a.308.308,0,0,1-.239-.307V-79.2a.312.312,0,0,1,.212-.3l3.434-1.059A32.1,32.1,0,0,1-2709.036-82h.019a12.508,12.508,0,0,1,3.782.563,16.435,16.435,0,0,1,4.059,2c.1.048.208.109.32.173a4.325,4.325,0,0,0,2.445.639h2.823a4.324,4.324,0,0,0,2.445-.639c.112-.064.217-.125.32-.173a16.423,16.423,0,0,1,4.059-2,12.507,12.507,0,0,1,3.782-.563h.019a32.1,32.1,0,0,1,7.317,1.438l3.434,1.059a.312.312,0,0,1,.212.3v3.624a.308.308,0,0,1-.239.307c-.75.151-1.184.494-1.29,1.022-.086.422-.217,1.056-.354,1.687l-.02.089-.019.088c-.207.945-.353,1.538-.431,1.76l0,.01a11.7,11.7,0,0,1-2.022,3.52A8.279,8.279,0,0,1-2684.941-64Zm.216-15.257a14.049,14.049,0,0,0-7.2,1.957l-1.006.769c.01.035,1.163,4.107,1.6,5.149l.007.016a9.824,9.824,0,0,0,1.679,2.771,5.717,5.717,0,0,0,4.405,2.033,7.323,7.323,0,0,0,1.394-.141c5.219-1.022,5.887-6.556,6.375-10.6A14.754,14.754,0,0,0-2684.725-79.257Zm-24.591.257a13.493,13.493,0,0,0-6.833,1.918c.459,3.958,1.087,9.381,6.006,10.382a6.63,6.63,0,0,0,1.314.139,5.3,5.3,0,0,0,4.151-1.993,9.7,9.7,0,0,0,1.581-2.715l.006-.015c.4-.976,1.4-4.624,1.508-5.037l0-.008-.948-.753A12.947,12.947,0,0,0-2709.316-79Z" transform="translate(2720 82.001)" fill="#eee"/>
</svg>
