<svg xmlns="http://www.w3.org/2000/svg" width="18.001" height="32" viewBox="0 0 18.001 32">
  <g id="cases_icon_default" data-name="cases icon default" transform="translate(-7.999)">
    <path id="Subtraction_227" data-name="Subtraction 227" d="M3368,16093h-12a3,3,0,0,1-3-3v-26a3,3,0,0,1,3-3h12a3,3,0,0,1,3,3v26A3,3,0,0,1,3368,16093Zm-11.6-30a1.5,1.5,0,0,0-1.5,1.5v6a1.5,1.5,0,0,0,1.5,1.5h3.631a1.5,1.5,0,0,0,1.5-1.5v-6a1.5,1.5,0,0,0-1.5-1.5Z" transform="translate(-3344.998 -16061.001)" fill="#eee"/>
    <g id="Rectangle_665" data-name="Rectangle 665" transform="translate(10.001 12.999)" fill="none" stroke="#1a1a1a" stroke-width="1.2">
      <rect width="14" height="17" rx="1.5" stroke="none"/>
      <rect x="0.6" y="0.6" width="12.8" height="15.8" rx="0.9" fill="none"/>
    </g>
  </g>
</svg>
