<svg xmlns="http://www.w3.org/2000/svg" width="30.25" height="35.997" viewBox="0 0 30.25 35.997">
  <g id="Razer_iOS_Apps_icon_default" data-name="Razer iOS Apps icon default" transform="translate(9469 16081.744)">
    <path id="apple_icon" data-name="apple icon" d="M29.291,51.023a7.5,7.5,0,0,1,4.018-6.815A8.635,8.635,0,0,0,26.5,40.623c-2.853-.225-5.971,1.664-7.112,1.664-1.205,0-3.97-1.583-6.14-1.583C8.766,40.776,4,44.28,4,51.408a20.03,20.03,0,0,0,1.157,6.526C6.186,60.884,9.9,68.116,13.772,68c2.025-.048,3.456-1.439,6.092-1.439C22.42,66.557,23.746,68,26,68c3.906-.056,7.265-6.63,8.246-9.588a7.967,7.967,0,0,1-4.959-7.386Zm-4.549-13.2A7.569,7.569,0,0,0,26.671,32a8.522,8.522,0,0,0-5.457,2.8,7.688,7.688,0,0,0-2.057,5.778C21.255,40.744,23.167,39.667,24.742,37.827Z" transform="translate(-9473 -16113.744)" fill="#eee"/>
  </g>
</svg>
