<svg xmlns="http://www.w3.org/2000/svg" width="77" height="28" viewBox="0 0 77 28">
  <g id="icon-handhelds" transform="translate(-3.506 0.118)">
    <rect id="bound" width="77" height="28" transform="translate(3.506 -0.118)" fill="rgba(255,255,255,0)"/>
    <g id="Group_1430" data-name="Group 1430" transform="translate(-466.833 975.657)">
      <path id="Path_8301" data-name="Path 8301" d="M525.057-972.846v21.676H478.642v-21.676h46.415m1.193-2.138h-48.8a.948.948,0,0,0-.949.947v24.058a.948.948,0,0,0,.949.947h48.8a.948.948,0,0,0,.949-.947v-24.058a.948.948,0,0,0-.949-.947Z" transform="translate(7.013 0.767)" fill="#eee"/>
      <path id="Path_8302" data-name="Path 8302" d="M483.085-973.4c0-.338-.023-.417-.073-.5-.336-.4-.566-.41-2.123-.389v-.846a.329.329,0,0,0-.329-.329h-1.078a.329.329,0,0,0-.329.329v.171h-.663a2.329,2.329,0,0,0-.857-.6,2.081,2.081,0,0,0-.832-.075c-.237.017-.44.036-.676.073l-.173.03-.222.042a4.66,4.66,0,0,0-1.263.443,1.421,1.421,0,0,0-.761.738,1.776,1.776,0,0,0-.081.389,1.3,1.3,0,0,0,.1.7l0,.047v.265a3.841,3.841,0,0,0-.872,1.02c-1.013,1.182-1.368,5.424-1.866,9.926-.545,4.921-1.526,9.809,1.056,12.032,1.676,1.456,2.683,1.546,5.03,1.612.419.041.139-.133,1.112-.124a6.086,6.086,0,0,1,1.013.073c1.779,0,2.747-.019,3.342-.015a.674.674,0,0,0,.552-.573S483.053-969.711,483.085-973.4Zm-5.328,2.288a2.6,2.6,0,0,1,2.6,2.6,2.6,2.6,0,0,1-2.6,2.6,2.6,2.6,0,0,1-2.6-2.6A2.6,2.6,0,0,1,477.757-971.117Zm2.677,12.06h-1.268v1.268a1.1,1.1,0,0,1-1.1,1.1,1.1,1.1,0,0,1-1.1-1.1v-1.268H475.7a1.1,1.1,0,0,1-1.1-1.1,1.1,1.1,0,0,1,1.1-1.1h1.268v-1.268a1.1,1.1,0,0,1,1.1-1.1,1.1,1.1,0,0,1,1.1,1.1v1.268h1.268a1.1,1.1,0,0,1,1.1,1.1A1.1,1.1,0,0,1,480.434-959.057Z" transform="translate(0 0)" fill="#eee"/>
      <path id="Path_8303" data-name="Path 8303" d="M512.5-961.978c-.5-4.5-.853-8.744-1.866-9.926a3.841,3.841,0,0,0-.872-1.02v-.265l0-.047a1.3,1.3,0,0,0,.1-.7,1.782,1.782,0,0,0-.081-.389,1.422,1.422,0,0,0-.761-.738,4.646,4.646,0,0,0-1.261-.443l-.225-.042-.173-.03c-.233-.036-.438-.056-.673-.073a2.092,2.092,0,0,0-.834.075,2.329,2.329,0,0,0-.857.6h-.663v-.171a.329.329,0,0,0-.329-.329h-1.078a.329.329,0,0,0-.329.329v.846c-1.556-.021-1.785-.013-2.123.389-.049.081-.075.16-.073.5.032,3.694,0,24.432,0,24.432a.674.674,0,0,0,.552.573c.594,0,1.563.015,3.341.015a6.122,6.122,0,0,1,1.013-.073c.973-.009.693.165,1.112.124,2.347-.066,3.354-.156,5.031-1.612C514.028-952.169,513.047-957.056,512.5-961.978Zm-6.85-10.294a1.421,1.421,0,0,1,1.417,1.42,1.42,1.42,0,0,1-1.417,1.417,1.421,1.421,0,0,1-1.42-1.417A1.422,1.422,0,0,1,505.652-972.272Zm1.417,6.371a1.421,1.421,0,0,1-1.417,1.419,1.422,1.422,0,0,1-1.42-1.419,1.421,1.421,0,0,1,1.42-1.417A1.421,1.421,0,0,1,507.069-965.9Zm-5.315-2.476a1.421,1.421,0,0,1,1.42-1.419,1.421,1.421,0,0,1,1.419,1.419,1.422,1.422,0,0,1-1.419,1.42A1.422,1.422,0,0,1,501.755-968.377Zm3.9,10.79a2.565,2.565,0,0,1-2.563-2.563,2.563,2.563,0,0,1,2.563-2.561,2.564,2.564,0,0,1,2.561,2.561A2.566,2.566,0,0,1,505.652-957.587Zm2.476-9.37a1.422,1.422,0,0,1-1.42-1.42,1.421,1.421,0,0,1,1.42-1.419,1.42,1.42,0,0,1,1.417,1.419A1.42,1.42,0,0,1,508.128-966.957Z" transform="translate(34.193 0)" fill="#eee"/>
    </g>
  </g>
</svg>
