<svg id="icon-opus" xmlns="http://www.w3.org/2000/svg" width="32.001" height="32.999" viewBox="0 0 32.001 32.999">
  <g id="Opus_icon_default" data-name="Opus icon default" transform="translate(2469.683 2473)">
    <g id="Group_517" data-name="Group 517">
      <g id="Group_437" data-name="Group 437" transform="translate(-2469.863 -2456.109)">
        <path id="Subtraction_62" data-name="Subtraction 62" d="M4.544,15.964h0L1.691,13.516.964,9.226l2.682-.588-.224-.923-.033.007L1.853,1.308,2.87.085,4.544,0,8.115,15.408l-3.571.556ZM.805,8.289h0L0,3.538,1.061,2.262,2.418,7.935.806,8.288Z" transform="translate(0.18 0.144)" fill="#eee"/>
        <path id="Path_106" data-name="Path 106" d="M1.253,14.678a.87.87,0,0,0,.935-.85L1.907.888A.961.961,0,0,0,.935,0,.87.87,0,0,0,0,.85L.28,13.79A.961.961,0,0,0,1.253,14.678Z" transform="matrix(0.978, -0.208, 0.208, 0.978, 5.988, 0.565)" fill="#eee"/>
      </g>
      <g id="Group_515" data-name="Group 515" transform="translate(-2448.683 -2456)">
        <path id="Subtraction_62-2" data-name="Subtraction 62" d="M4.544,0h0L1.691,2.448.964,6.738l2.682.588-.224.923-.033-.007L1.853,14.656,2.87,15.879l1.674.085L8.115.556,4.545,0ZM.805,7.675h0L0,12.426,1.061,13.7,2.418,8.029.806,7.676Z" transform="translate(11.001 15.999) rotate(180)" fill="#eee"/>
        <path id="Path_106-2" data-name="Path 106" d="M1.254,0a.87.87,0,0,1,.935.85l-.281,12.94a.961.961,0,0,1-.973.888A.87.87,0,0,1,0,13.828L.281.888A.961.961,0,0,1,1.254,0Z" transform="matrix(-0.978, -0.208, 0.208, -0.978, 2.141, 14.813)" fill="#eee"/>
      </g>
    </g>
    <path id="Subtraction_68" data-name="Subtraction 68" d="M29.881,16.031h0l-3.386-.9a15.224,15.224,0,0,0-3.227-7.294c-.082-.1-.167-.2-.253-.3l1.806-3.128c.259.27.508.548.743.828a18.334,18.334,0,0,1,3.218,5.689,20.576,20.576,0,0,1,1.1,5.1ZM0,16.025H0a20.577,20.577,0,0,1,1.1-5.094A18.343,18.343,0,0,1,4.319,5.242c.313-.372.636-.726.962-1.053l1.8,3.117a13.488,13.488,0,0,0-.873,1.051l-.021.027-.006.008L6.175,8.4A15.427,15.427,0,0,0,3.39,15.116L0,16.024ZM22.3,6.786h0a10.447,10.447,0,0,0-7.353-3.114h-.324l-.053,0h-.017l-.06,0h-.005a10.013,10.013,0,0,0-3.965,1.023A11.359,11.359,0,0,0,7.811,6.572L6.029,3.486A14.529,14.529,0,0,1,9.094,1.407a12.856,12.856,0,0,1,11.695,0,14.634,14.634,0,0,1,3.293,2.285L22.3,6.785Z" transform="translate(-2468.683 -2473)" fill="#eee"/>
  </g>
</svg>
