<svg id="icon-cortexgames" xmlns="http://www.w3.org/2000/svg" width="36" height="36" viewBox="0 0 36 36">
  <g id="Cortex_Games_icon_default" data-name="Cortex Games icon default" transform="translate(2220 1814)">
    <path id="Subtraction_98" data-name="Subtraction 98" d="M-5308-1842a17.893,17.893,0,0,1-7.007-1.414,17.931,17.931,0,0,1-5.721-3.858,17.921,17.921,0,0,1-3.858-5.721A17.891,17.891,0,0,1-5326-1860a17.894,17.894,0,0,1,1.415-7.007,17.922,17.922,0,0,1,3.858-5.722,17.935,17.935,0,0,1,5.721-3.858A17.891,17.891,0,0,1-5308-1878a17.885,17.885,0,0,1,7.006,1.415,17.946,17.946,0,0,1,5.721,3.858,17.935,17.935,0,0,1,3.857,5.722A17.894,17.894,0,0,1-5290-1860a17.891,17.891,0,0,1-1.415,7.006,17.939,17.939,0,0,1-3.857,5.721,17.942,17.942,0,0,1-5.721,3.858A17.887,17.887,0,0,1-5308-1842Zm0-28.575a11.045,11.045,0,0,0-7.042,2.543,10.875,10.875,0,0,0-3.908,7.426,10.9,10.9,0,0,0,2.5,8.031l2.231-1.85-.174-.218a8.023,8.023,0,0,1-1.634-5.941,8.031,8.031,0,0,1,3.04-5.366,8.014,8.014,0,0,1,4.989-1.726,8.046,8.046,0,0,1,6.373,3.1,12.212,12.212,0,0,1,.754,1.141,8.576,8.576,0,0,1,.521,1.171,8.053,8.053,0,0,1,.328,4.1,8.069,8.069,0,0,1-1.749,3.735l2.217,1.85a10.956,10.956,0,0,0,0-14.055A10.969,10.969,0,0,0-5308.005-1870.575Zm.028,6.625a3.722,3.722,0,0,0-.58.044,4.294,4.294,0,0,0-2.872,1.674,4.287,4.287,0,0,0-.838,3.213,4.339,4.339,0,0,0,4.291,3.744,4.465,4.465,0,0,0,.607-.043,4.294,4.294,0,0,0,2.872-1.675,4.288,4.288,0,0,0,.838-3.212l2.45-2.993-3.724.477A4.376,4.376,0,0,0-5307.978-1863.95Zm0,5.784a1.456,1.456,0,0,1-1.1-.505,1.434,1.434,0,0,1-.345-1.049,1.441,1.441,0,0,1,.5-.991,1.444,1.444,0,0,1,.939-.348,1.459,1.459,0,0,1,1.1.507l.261.449a1.417,1.417,0,0,1,.087.492A1.448,1.448,0,0,1-5307.978-1858.167Z" transform="translate(3106.001 64)" fill="#eee"/>
  </g>
</svg>
