<svg xmlns="http://www.w3.org/2000/svg" xmlns:xlink="http://www.w3.org/1999/xlink" width="42" height="36" viewBox="0 0 42 36">
  <defs>
    <clipPath id="clip-path">
      <rect id="Rectangle_983" data-name="Rectangle 983" width="42" height="36" transform="translate(62 630)" fill="#fff" stroke="#707070" stroke-width="1"/>
    </clipPath>
  </defs>
  <g id="icon-customs" transform="translate(-62 -630)" clip-path="url(#clip-path)">
    <g id="Group_1407" data-name="Group 1407" transform="translate(218.422 1965.427)">
      <g id="Group_1406" data-name="Group 1406">
        <path id="Path_8271" data-name="Path 8271" d="M-131.544-1314.951l-3.111-3.114L-117.6-1334.2a1.565,1.565,0,0,1,2.183.031h0a1.565,1.565,0,0,1,.029,2.183Z" fill="#fff"/>
        <rect id="Rectangle_979" data-name="Rectangle 979" width="6.264" height="1.707" rx="0.854" transform="matrix(0.707, 0.707, -0.707, 0.707, -135.894, -1318.144)" fill="#fff"/>
        <path id="Path_8272" data-name="Path 8272" d="M-134.961-1310.716a2.809,2.809,0,0,0,.5-2.149,2.825,2.825,0,0,0-2.468-2.306,2.809,2.809,0,0,0-2.6,1.175l0,0a5.254,5.254,0,0,0-1.094,2.348,14.353,14.353,0,0,1-.893,2.813,15.178,15.178,0,0,1-1.744,2.534.208.208,0,0,0,.181.351,10.475,10.475,0,0,0,4.14-1.681,21.474,21.474,0,0,0,3.441-2.524,2.808,2.808,0,0,0,.526-.541l.016-.017Z" fill="#fff"/>
      </g>
      <path id="Path_8273" data-name="Path 8273" d="M-134.437-1310.289l-.019.028a3.523,3.523,0,0,1-.6.612,16.55,16.55,0,0,1-2.709,2.039l-.8.538a11.873,11.873,0,0,1-1.671.937c.009.093.014.187.014.282a2.965,2.965,0,0,1-2.965,2.965,2.966,2.966,0,0,1-2.965-2.965,2.966,2.966,0,0,1,2.965-2.966,2.956,2.956,0,0,1,.809.115c.1-.171.188-.321.25-.433a13.708,13.708,0,0,0,.836-2.639,5.967,5.967,0,0,1,1.245-2.662,3.5,3.5,0,0,1,2.812-1.426,2.111,2.111,0,0,1,.267.02l-.01-.011a1.522,1.522,0,0,1-.448-1.082,1.523,1.523,0,0,1,.449-1.083,1.523,1.523,0,0,1,1.082-.447h0a1.519,1.519,0,0,1,.564.109l.209-.2,10.764-10.185a18.046,18.046,0,0,0-13.436-6.676,18.068,18.068,0,0,0-18.619,18.654,17.978,17.978,0,0,0,16.092,17.334,6.813,6.813,0,0,0,6.265-4.987c.388-1.726-.276-3.7-.388-5.268C-134.449-1309.892-134.444-1310.092-134.437-1310.289Zm.845-21.7a2.965,2.965,0,0,1,2.965,2.965,2.966,2.966,0,0,1-2.965,2.965,2.965,2.965,0,0,1-2.965-2.965A2.964,2.964,0,0,1-133.592-1331.993Zm-9.594,0a2.964,2.964,0,0,1,2.965,2.965,2.965,2.965,0,0,1-2.965,2.965,2.966,2.966,0,0,1-2.965-2.965A2.965,2.965,0,0,1-143.186-1331.993Zm-6.809,22.333a2.965,2.965,0,0,1-2.965-2.965,2.964,2.964,0,0,1,2.965-2.965,2.965,2.965,0,0,1,2.965,2.965A2.966,2.966,0,0,1-149.995-1309.66Zm0-9.631a2.965,2.965,0,0,1-2.965-2.966,2.965,2.965,0,0,1,2.965-2.965,2.966,2.966,0,0,1,2.965,2.965A2.966,2.966,0,0,1-149.995-1319.291Z" fill="#fff"/>
      <path id="Path_8274" data-name="Path 8274" d="M-129.622-1315.994a12.052,12.052,0,0,1,1.586-.311,5.711,5.711,0,0,1,4.122,1.385,2.238,2.238,0,0,0,3.61-1.623q.022-.493.017-.994a17.873,17.873,0,0,0-1.416-6.808Z" fill="#fff"/>
    </g>
  </g>
</svg>
